<?xml version="1.0" encoding="UTF-8" standalone="no"?>
<!-- Created with Inkscape (http://www.inkscape.org/) -->
<svg
   xmlns:dc="http://purl.org/dc/elements/1.1/"
   xmlns:cc="http://creativecommons.org/ns#"
   xmlns:rdf="http://www.w3.org/1999/02/22-rdf-syntax-ns#"
   xmlns:svg="http://www.w3.org/2000/svg"
   xmlns="http://www.w3.org/2000/svg"
   xmlns:sodipodi="http://sodipodi.sourceforge.net/DTD/sodipodi-0.dtd"
   xmlns:inkscape="http://www.inkscape.org/namespaces/inkscape"
   id="svg3806"
   sodipodi:version="0.32"
   inkscape:version="0.46"
   width="658.75"
   height="167.5"
   xml:space="preserve"
   sodipodi:docname="Lyon 1 officiel.svg"
   inkscape:output_extension="org.inkscape.output.svg.inkscape"><metadata
     id="metadata3811"><rdf:RDF><cc:Work
         rdf:about=""><dc:format>image/svg+xml</dc:format><dc:type
           rdf:resource="http://purl.org/dc/dcmitype/StillImage" /></cc:Work></rdf:RDF></metadata><defs
     id="defs3809"><inkscape:perspective
       sodipodi:type="inkscape:persp3d"
       inkscape:vp_x="0 : 526.18109 : 1"
       inkscape:vp_y="0 : 1000 : 0"
       inkscape:vp_z="744.09448 : 526.18109 : 1"
       inkscape:persp3d-origin="372.04724 : 350.78739 : 1"
       id="perspective3813" /><clipPath
       clipPathUnits="userSpaceOnUse"
       id="clipPath3823"><path
         d="M 0,1333.14 L 0,0 L 5261.99,0 L 5261.99,1333.14 L 0,1333.14 z"
         id="path3825" /></clipPath></defs><sodipodi:namedview
     inkscape:window-height="726"
     inkscape:window-width="645"
     inkscape:pageshadow="2"
     inkscape:pageopacity="0.0"
     guidetolerance="10.0"
     gridtolerance="10.0"
     objecttolerance="10.0"
     borderopacity="1.0"
     bordercolor="#666666"
     pagecolor="#ffffff"
     id="base"
     showgrid="false"
     inkscape:zoom="0.8455408"
     inkscape:cx="329.375"
     inkscape:cy="83.75"
     inkscape:window-x="0"
     inkscape:window-y="25"
     inkscape:current-layer="g3815" /><g
     id="g3815"
     inkscape:groupmode="layer"
     inkscape:label="VECTo_UCBL_off_QUAD"
     transform="matrix(1.25,0,0,-1.25,0,167.5)"><g
       id="g3817"
       transform="scale(0.1,0.1)"><g
         id="g3819"><g
           id="g3821"
           clip-path="url(#clipPath3823)"><path
             d="M 4211.45,662.754 C 4211.45,539.707 4111.73,439.922 3988.62,439.922 C 3865.57,439.922 3765.79,539.707 3765.79,662.754 C 3765.79,785.84 3865.57,885.586 3988.62,885.586 C 4111.73,885.586 4211.45,785.84 4211.45,662.754 z"
             style="fill:none;stroke:#4f4b4c;stroke-opacity:1;stroke-width:18;stroke-linecap:butt;stroke-linejoin:miter;stroke-miterlimit:4;stroke-dasharray:none"
             id="path3827" /><path
             d="M 4250.3,662.793 C 4250.3,518.262 4133.17,401.121 3988.68,401.121 C 3844.13,401.121 3727,518.262 3727,662.793 C 3727,807.285 3844.13,924.434 3988.68,924.434 C 4133.17,924.434 4250.3,807.285 4250.3,662.793 z"
             style="fill:none;stroke:#f1461c;stroke-opacity:1;stroke-width:9.6;stroke-linecap:round;stroke-linejoin:miter;stroke-miterlimit:4;stroke-dasharray:none"
             id="path3829" /><path
             d="M 4301.33,662.793 C 4301.33,490.059 4161.36,350.02 3988.68,350.02 C 3815.95,350.02 3675.91,490.059 3675.91,662.793 C 3675.91,835.449 3815.95,975.496 3988.68,975.496 C 4161.36,975.496 4301.33,835.449 4301.33,662.793 z"
             style="fill:none;stroke:#f79210;stroke-opacity:1;stroke-width:48;stroke-linecap:round;stroke-linejoin:miter;stroke-miterlimit:4;stroke-dasharray:none"
             id="path3831" /><path
             d="M 4390.57,692.93 C 4390.57,477.891 4216.25,303.539 4001.28,303.539 C 3786.25,303.539 3611.92,477.891 3611.92,692.93 C 3611.92,907.949 3786.25,1082.23 4001.28,1082.23 C 4216.25,1082.23 4390.57,907.949 4390.57,692.93 z"
             style="fill:none;stroke:#b23314;stroke-opacity:1;stroke-width:18;stroke-linecap:round;stroke-linejoin:miter;stroke-miterlimit:4;stroke-dasharray:none"
             id="path3833" /><path
             d="M 4429.83,697.734 C 4429.83,463.965 4240.34,274.469 4006.62,274.469 C 3772.94,274.469 3583.45,463.965 3583.45,697.734 C 3583.45,931.414 3772.94,1120.9 4006.62,1120.9 C 4240.34,1120.9 4429.83,931.414 4429.83,697.734 z"
             style="fill:none;stroke:#65808e;stroke-opacity:1;stroke-width:18;stroke-linecap:round;stroke-linejoin:miter;stroke-miterlimit:4;stroke-dasharray:none"
             id="path3835" /><path
             d="M 4469.93,678.328 C 4469.93,392.09 4237.94,160.02 3951.7,160.02 C 3665.48,160.02 3433.45,392.09 3433.45,678.328 C 3433.45,964.512 3665.48,1196.54 3951.7,1196.54 C 4237.94,1196.54 4469.93,964.512 4469.93,678.328 z"
             style="fill:none;stroke:#f9a70c;stroke-opacity:1;stroke-width:24;stroke-linecap:round;stroke-linejoin:miter;stroke-miterlimit:4;stroke-dasharray:none"
             id="path3837" /><path
             d="M 4568.87,527.48 C 4568.87,238.828 4334.86,4.80859 4046.22,4.80859 C 3757.58,4.80859 3523.62,238.828 3523.62,527.48 C 3523.62,816.121 3757.58,1050.1 4046.22,1050.1 C 4334.86,1050.1 4568.87,816.121 4568.87,527.48 z"
             style="fill:none;stroke:#f0387b;stroke-opacity:1;stroke-width:9.6;stroke-linecap:round;stroke-linejoin:miter;stroke-miterlimit:4;stroke-dasharray:none"
             id="path3839" /><path
             d="M 4685.3,744.121 C 4685.3,421.348 4418.29,159.75 4088.99,159.75 C 3759.7,159.75 3492.69,421.348 3492.69,744.121 C 3492.69,1066.76 3759.7,1328.34 4088.99,1328.34 C 4418.29,1328.34 4685.3,1066.76 4685.3,744.121 z"
             style="fill:none;stroke:#f35c19;stroke-opacity:1;stroke-width:9.6;stroke-linecap:round;stroke-linejoin:miter;stroke-miterlimit:4;stroke-dasharray:none"
             id="path3841" /><path
             d="M 75.4531,565.859 C 33.4141,565.859 0,594.375 0,637.852 L 0,772.637 L 40.0352,772.637 L 40.0352,639.297 C 40.0352,615.684 53.8555,601.574 75.4531,601.574 C 97.0586,601.574 111.168,615.684 111.168,639.297 L 111.168,772.637 L 150.914,772.637 L 150.914,637.852 C 150.914,594.375 117.504,565.859 75.4531,565.859"
             style="fill:#4f4b4c;fill-opacity:1;fill-rule:nonzero;stroke:none"
             id="path3843" /><path
             d="M 279.938,567.578 L 279.938,658.301 C 279.938,678.75 266.977,685.664 255.164,685.664 C 243.363,685.664 230.113,678.75 230.113,658.301 L 230.113,567.578 L 192.672,567.578 L 192.672,717.637 L 229.242,717.637 L 229.242,703.809 C 239.039,714.18 252.867,719.355 266.688,719.355 C 281.66,719.355 293.762,714.465 302.113,706.121 C 314.203,694.016 317.371,679.91 317.371,663.496 L 317.371,567.578 L 279.938,567.578"
             style="fill:#4f4b4c;fill-opacity:1;fill-rule:nonzero;stroke:none"
             id="path3845" /><path
             d="M 357.699,567.578 L 357.699,717.637 L 395.133,717.637 L 395.133,567.578 L 357.699,567.578 z M 357.117,743.262 L 357.117,773.789 L 395.422,773.789 L 395.422,743.262 L 357.117,743.262"
             style="fill:#4f4b4c;fill-opacity:1;fill-rule:nonzero;stroke:none"
             id="path3847" /><path
             d="M 501.711,567.578 L 472.336,567.578 L 417.035,717.637 L 456.492,717.637 L 487.027,624.91 L 517.262,717.637 L 556.715,717.637 L 501.711,567.578"
             style="fill:#4f4b4c;fill-opacity:1;fill-rule:nonzero;stroke:none"
             id="path3849" /><path
             d="M 658.938,672.703 C 654.902,681.633 646.543,688.262 633.871,688.262 C 621.199,688.262 612.848,681.633 608.824,672.703 C 606.52,667.227 605.652,663.203 605.367,656.582 L 662.383,656.582 C 662.094,663.203 661.234,667.227 658.938,672.703 z M 605.367,630.938 C 605.367,611.641 617.168,597.539 638.199,597.539 C 654.613,597.539 662.672,602.148 672.18,611.641 L 694.926,589.473 C 679.664,574.207 664.98,565.859 637.91,565.859 C 602.484,565.859 568.496,581.992 568.496,642.754 C 568.496,691.707 594.996,719.355 633.871,719.355 C 675.637,719.355 699.246,688.828 699.246,647.648 L 699.246,630.938 L 605.367,630.938"
             style="fill:#4f4b4c;fill-opacity:1;fill-rule:nonzero;stroke:none"
             id="path3851" /><path
             d="M 815.312,676.746 C 809.547,682.5 804.652,685.664 795.438,685.664 C 783.918,685.664 771.246,677.023 771.246,658.02 L 771.246,567.578 L 733.805,567.578 L 733.805,717.637 L 770.375,717.637 L 770.375,703.242 C 777.578,711.875 791.98,719.355 808.109,719.355 C 822.793,719.355 833.164,715.625 843.535,705.254 L 815.312,676.746"
             style="fill:#4f4b4c;fill-opacity:1;fill-rule:nonzero;stroke:none"
             id="path3853" /><path
             d="M 911.215,565.859 C 887.602,565.859 866.285,568.457 847.285,587.461 L 871.758,611.934 C 884.145,599.551 900.273,597.832 911.793,597.832 C 924.75,597.832 938.285,602.148 938.285,613.379 C 938.285,620.859 934.254,626.043 922.449,627.207 L 898.828,629.5 C 871.758,632.09 855.055,643.914 855.055,671.555 C 855.055,702.664 882.41,719.355 912.949,719.355 C 936.273,719.355 955.859,715.332 970.254,701.797 L 947.219,678.457 C 938.578,686.25 925.328,688.543 912.367,688.543 C 897.398,688.543 891.055,681.633 891.055,674.141 C 891.055,668.672 893.363,662.332 906.609,661.184 L 930.23,658.875 C 959.887,655.996 974.867,640.164 974.867,614.816 C 974.867,581.699 946.645,565.859 911.215,565.859"
             style="fill:#4f4b4c;fill-opacity:1;fill-rule:nonzero;stroke:none"
             id="path3855" /><path
             d="M 1006.25,567.578 L 1006.25,717.637 L 1043.7,717.637 L 1043.7,567.578 L 1006.25,567.578 z M 1005.68,743.262 L 1005.68,773.789 L 1043.98,773.789 L 1043.98,743.262 L 1005.68,743.262"
             style="fill:#4f4b4c;fill-opacity:1;fill-rule:nonzero;stroke:none"
             id="path3857" /><path
             d="M 1132.4,567.578 C 1101.87,567.578 1088.91,589.18 1088.91,610.496 L 1088.91,684.805 L 1073.07,684.805 L 1073.07,713.312 L 1088.91,713.312 L 1088.91,757.664 L 1126.34,757.664 L 1126.34,713.312 L 1152.84,713.312 L 1152.84,684.805 L 1126.34,684.805 L 1126.34,612.793 C 1126.34,604.16 1130.38,599.258 1139.3,599.258 L 1152.84,599.258 L 1152.84,567.578 L 1132.4,567.578"
             style="fill:#4f4b4c;fill-opacity:1;fill-rule:nonzero;stroke:none"
             id="path3859" /><path
             d="M 1254.79,741.535 L 1229.74,741.535 L 1248.17,790.496 L 1287.63,790.496 L 1254.79,741.535 z M 1269.78,672.703 C 1265.74,681.633 1257.38,688.262 1244.71,688.262 C 1232.04,688.262 1223.69,681.633 1219.66,672.703 C 1217.36,667.227 1216.49,663.203 1216.2,656.582 L 1273.23,656.582 C 1272.94,663.203 1272.08,667.227 1269.78,672.703 z M 1216.2,630.938 C 1216.2,611.641 1228.01,597.539 1249.04,597.539 C 1265.45,597.539 1273.51,602.148 1283.02,611.641 L 1305.77,589.473 C 1290.5,574.207 1275.82,565.859 1248.75,565.859 C 1213.33,565.859 1179.34,581.992 1179.34,642.754 C 1179.34,691.707 1205.83,719.355 1244.71,719.355 C 1286.48,719.355 1310.09,688.828 1310.09,647.648 L 1310.09,630.938 L 1216.2,630.938"
             style="fill:#4f4b4c;fill-opacity:1;fill-rule:nonzero;stroke:none"
             id="path3861" /><path
             d="M 1482.88,565.859 C 1460.42,565.859 1441.99,573.926 1427.59,588.328 C 1406.86,609.055 1407.43,634.688 1407.43,670.117 C 1407.43,705.535 1406.86,731.172 1427.59,751.914 C 1441.99,766.309 1460.42,774.375 1482.88,774.375 C 1521.19,774.375 1551.14,752.48 1558.34,709.578 L 1517.73,709.578 C 1513.7,725.977 1503.33,738.66 1483.17,738.66 C 1472.23,738.66 1463.3,734.629 1457.54,727.996 C 1449.76,719.355 1447.46,709.578 1447.46,670.117 C 1447.46,630.664 1449.76,620.859 1457.54,612.227 C 1463.3,605.605 1472.23,601.574 1483.17,601.574 C 1503.33,601.574 1513.7,614.246 1517.73,630.664 L 1558.34,630.664 C 1551.14,587.742 1520.9,565.859 1482.88,565.859"
             style="fill:#4f4b4c;fill-opacity:1;fill-rule:nonzero;stroke:none"
             id="path3863" /><path
             d="M 1632.36,567.578 C 1601.54,567.578 1588.58,589.18 1588.58,610.496 L 1588.58,772.637 L 1626.02,772.637 L 1626.02,612.793 C 1626.02,603.867 1629.76,599.258 1639.27,599.258 L 1653.67,599.258 L 1653.67,567.578 L 1632.36,567.578"
             style="fill:#4f4b4c;fill-opacity:1;fill-rule:nonzero;stroke:none"
             id="path3865" /><path
             d="M 1759.65,630.938 L 1729.99,630.938 C 1716.45,630.938 1708.96,624.609 1708.96,613.953 C 1708.96,603.582 1715.87,596.668 1730.57,596.668 C 1740.93,596.668 1747.55,597.539 1754.17,603.867 C 1758.21,607.617 1759.65,613.66 1759.65,622.883 L 1759.65,630.938 z M 1760.51,567.578 L 1760.51,580.547 C 1750.44,570.469 1740.93,566.152 1723.65,566.152 C 1706.66,566.152 1694.28,570.469 1685.35,579.395 C 1677.29,587.742 1672.96,599.844 1672.96,613.086 C 1672.96,636.992 1689.38,656.582 1724.23,656.582 L 1759.65,656.582 L 1759.65,664.074 C 1759.65,680.48 1751.59,687.676 1731.71,687.676 C 1717.32,687.676 1710.69,684.219 1702.92,675.293 L 1679.01,698.621 C 1693.7,714.746 1708.1,719.355 1733.16,719.355 C 1775.2,719.355 1797.09,701.504 1797.09,666.367 L 1797.09,567.578 L 1760.51,567.578"
             style="fill:#4f4b4c;fill-opacity:1;fill-rule:nonzero;stroke:none"
             id="path3867" /><path
             d="M 1923.8,567.578 L 1923.8,581.414 C 1914.01,571.035 1900.2,565.859 1886.37,565.859 C 1871.4,565.859 1859.29,570.75 1850.95,579.102 C 1838.85,591.203 1835.68,605.324 1835.68,621.73 L 1835.68,717.637 L 1873.12,717.637 L 1873.12,626.914 C 1873.12,606.465 1886.08,599.551 1897.89,599.551 C 1909.7,599.551 1922.94,606.465 1922.94,626.914 L 1922.94,717.637 L 1960.38,717.637 L 1960.38,567.578 L 1923.8,567.578"
             style="fill:#4f4b4c;fill-opacity:1;fill-rule:nonzero;stroke:none"
             id="path3869" /><path
             d="M 2058.88,685.664 C 2036.42,685.664 2033.54,667.227 2033.54,642.754 C 2033.54,618.273 2036.42,599.551 2058.88,599.551 C 2081.34,599.551 2084.51,618.273 2084.51,642.754 C 2084.51,667.227 2081.34,685.664 2058.88,685.664 z M 2085.38,567.578 L 2085.38,581.699 C 2075,570.176 2064.07,565.859 2048.22,565.859 C 2033.54,565.859 2019.71,571.035 2011.36,579.395 C 1996.38,594.375 1996.09,620.293 1996.09,642.754 C 1996.09,665.215 1996.38,690.852 2011.36,705.828 C 2019.71,714.18 2033.25,719.355 2047.94,719.355 C 2063.2,719.355 2074.72,715.332 2084.51,704.387 L 2084.51,772.637 L 2121.95,772.637 L 2121.95,567.578 L 2085.38,567.578"
             style="fill:#4f4b4c;fill-opacity:1;fill-rule:nonzero;stroke:none"
             id="path3871" /><path
             d="M 2246.94,672.703 C 2242.91,681.633 2234.55,688.262 2221.88,688.262 C 2209.21,688.262 2200.86,681.633 2196.83,672.703 C 2194.53,667.227 2193.66,663.203 2193.37,656.582 L 2250.4,656.582 C 2250.11,663.203 2249.24,667.227 2246.94,672.703 z M 2193.37,630.938 C 2193.37,611.641 2205.18,597.539 2226.2,597.539 C 2242.62,597.539 2250.68,602.148 2260.19,611.641 L 2282.94,589.473 C 2267.67,574.207 2252.99,565.859 2225.91,565.859 C 2190.49,565.859 2156.5,581.992 2156.5,642.754 C 2156.5,691.707 2183,719.355 2221.88,719.355 C 2263.65,719.355 2287.26,688.828 2287.26,647.648 L 2287.26,630.938 L 2193.37,630.938"
             style="fill:#4f4b4c;fill-opacity:1;fill-rule:nonzero;stroke:none"
             id="path3873" /><path
             d="M 2473.31,653.691 L 2431.54,653.691 L 2431.54,603.301 L 2473.31,603.301 C 2491.45,603.301 2500.09,614.816 2500.09,628.633 C 2500.09,642.461 2491.45,653.691 2473.31,653.691 z M 2470.71,736.934 L 2431.54,736.934 L 2431.54,689.707 L 2470.71,689.707 C 2487.71,689.707 2497.21,699.199 2497.21,713.312 C 2497.21,727.422 2487.71,736.934 2470.71,736.934 z M 2477.33,567.578 L 2391.51,567.578 L 2391.51,772.637 L 2473.88,772.637 C 2513.92,772.637 2537.24,750.176 2537.24,715.039 C 2537.24,692.285 2522.27,677.598 2511.9,672.703 C 2524.28,666.945 2540.12,653.984 2540.12,626.621 C 2540.12,588.328 2513.92,567.578 2477.33,567.578"
             style="fill:#4f4b4c;fill-opacity:1;fill-rule:nonzero;stroke:none"
             id="path3875" /><path
             d="M 2661.08,672.703 C 2657.04,681.633 2648.7,688.262 2636.03,688.262 C 2623.35,688.262 2615,681.633 2610.96,672.703 C 2608.66,667.227 2607.79,663.203 2607.5,656.582 L 2664.54,656.582 C 2664.24,663.203 2663.37,667.227 2661.08,672.703 z M 2607.5,630.938 C 2607.5,611.641 2619.32,597.539 2640.34,597.539 C 2656.75,597.539 2664.83,602.148 2674.32,611.641 L 2697.08,589.473 C 2681.82,574.207 2667.12,565.859 2640.04,565.859 C 2604.62,565.859 2570.65,581.992 2570.65,642.754 C 2570.65,691.707 2597.13,719.355 2636.03,719.355 C 2677.79,719.355 2701.4,688.828 2701.4,647.648 L 2701.4,630.938 L 2607.5,630.938"
             style="fill:#4f4b4c;fill-opacity:1;fill-rule:nonzero;stroke:none"
             id="path3877" /><path
             d="M 2817.46,676.746 C 2811.7,682.5 2806.8,685.664 2797.58,685.664 C 2786.07,685.664 2773.4,677.023 2773.4,658.02 L 2773.4,567.578 L 2735.95,567.578 L 2735.95,717.637 L 2772.53,717.637 L 2772.53,703.242 C 2779.74,711.875 2794.13,719.355 2810.26,719.355 C 2824.95,719.355 2835.32,715.625 2845.69,705.254 L 2817.46,676.746"
             style="fill:#4f4b4c;fill-opacity:1;fill-rule:nonzero;stroke:none"
             id="path3879" /><path
             d="M 2954.25,567.578 L 2954.25,658.301 C 2954.25,678.75 2941.29,685.664 2929.49,685.664 C 2917.68,685.664 2904.44,678.75 2904.44,658.301 L 2904.44,567.578 L 2866.99,567.578 L 2866.99,717.637 L 2903.57,717.637 L 2903.57,703.809 C 2913.36,714.18 2927.19,719.355 2941.01,719.355 C 2955.99,719.355 2968.07,714.465 2976.44,706.121 C 2988.53,694.016 2991.7,679.91 2991.7,663.496 L 2991.7,567.578 L 2954.25,567.578"
             style="fill:#4f4b4c;fill-opacity:1;fill-rule:nonzero;stroke:none"
             id="path3881" /><path
             d="M 3108.04,630.938 L 3078.37,630.938 C 3064.84,630.938 3057.36,624.609 3057.36,613.953 C 3057.36,603.582 3064.27,596.668 3078.95,596.668 C 3089.32,596.668 3095.95,597.539 3102.57,603.867 C 3106.61,607.617 3108.04,613.66 3108.04,622.883 L 3108.04,630.938 z M 3108.91,567.578 L 3108.91,580.547 C 3098.82,570.469 3089.32,566.152 3072.04,566.152 C 3055.04,566.152 3042.66,570.469 3033.75,579.395 C 3025.67,587.742 3021.36,599.844 3021.36,613.086 C 3021.36,636.992 3037.78,656.582 3072.61,656.582 L 3108.04,656.582 L 3108.04,664.074 C 3108.04,680.48 3099.99,687.676 3080.11,687.676 C 3065.7,687.676 3059.08,684.219 3051.31,675.293 L 3027.41,698.621 C 3042.08,714.746 3056.49,719.355 3081.54,719.355 C 3123.59,719.355 3145.48,701.504 3145.48,666.367 L 3145.48,567.578 L 3108.91,567.578"
             style="fill:#4f4b4c;fill-opacity:1;fill-rule:nonzero;stroke:none"
             id="path3883" /><path
             d="M 3267.32,676.746 C 3261.55,682.5 3256.66,685.664 3247.45,685.664 C 3235.91,685.664 3223.25,677.023 3223.25,658.02 L 3223.25,567.578 L 3185.82,567.578 L 3185.82,717.637 L 3222.38,717.637 L 3222.38,703.242 C 3229.58,711.875 3243.99,719.355 3260.11,719.355 C 3274.8,719.355 3285.16,715.625 3295.53,705.254 L 3267.32,676.746"
             style="fill:#4f4b4c;fill-opacity:1;fill-rule:nonzero;stroke:none"
             id="path3885" /><path
             d="M 3364.37,685.664 C 3341.91,685.664 3339.03,667.227 3339.03,642.754 C 3339.03,618.273 3341.91,599.551 3364.37,599.551 C 3386.82,599.551 3390,618.273 3390,642.754 C 3390,667.227 3386.82,685.664 3364.37,685.664 z M 3390.86,567.578 L 3390.86,581.699 C 3380.49,570.176 3369.55,565.859 3353.71,565.859 C 3339.03,565.859 3325.2,571.035 3316.85,579.395 C 3301.87,594.375 3301.58,620.293 3301.58,642.754 C 3301.58,665.215 3301.87,690.852 3316.85,705.828 C 3325.2,714.18 3338.74,719.355 3353.41,719.355 C 3368.68,719.355 3380.2,715.332 3390,704.387 L 3390,772.637 L 3427.45,772.637 L 3427.45,567.578 L 3390.86,567.578"
             style="fill:#4f4b4c;fill-opacity:1;fill-rule:nonzero;stroke:none"
             id="path3887" /><path
             d="M 4501.13,567.578 L 4501.13,772.637 L 4541.16,772.637 L 4541.16,603.301 L 4634.19,603.301 L 4634.19,567.578 L 4501.13,567.578"
             style="fill:#4f4b4c;fill-opacity:1;fill-rule:nonzero;stroke:none"
             id="path3889" /><path
             d="M 4702.42,543.391 C 4699.25,535.039 4695.8,528.703 4691.2,524.102 C 4682.54,515.449 4671.32,512.578 4658.94,512.578 L 4644.24,512.578 L 4644.24,546.27 L 4652.89,546.27 C 4663.54,546.27 4667.87,548.867 4671.62,559.805 L 4677.94,578.242 L 4626.67,717.637 L 4666.13,717.637 L 4697.24,624.91 L 4727.19,717.637 L 4766.66,717.637 L 4702.42,543.391"
             style="fill:#4f4b4c;fill-opacity:1;fill-rule:nonzero;stroke:none"
             id="path3891" /><path
             d="M 4860.53,679.043 C 4856.22,683.359 4850.45,685.664 4842.96,685.664 C 4835.48,685.664 4830,683.359 4825.7,679.043 C 4817.91,671.27 4817.05,658.301 4817.05,642.754 C 4817.05,627.207 4817.91,613.953 4825.7,606.172 C 4830,601.855 4835.48,599.551 4842.96,599.551 C 4850.45,599.551 4856.22,601.855 4860.53,606.172 C 4868.32,613.953 4869.17,627.207 4869.17,642.754 C 4869.17,658.301 4868.32,671.27 4860.53,679.043 z M 4889.62,584.285 C 4880.41,574.492 4865.15,565.859 4842.96,565.859 C 4820.79,565.859 4805.83,574.492 4796.61,584.285 C 4783.07,598.398 4779.61,615.391 4779.61,642.754 C 4779.61,669.824 4783.07,686.816 4796.61,700.93 C 4805.83,710.723 4820.79,719.355 4842.96,719.355 C 4865.15,719.355 4880.41,710.723 4889.62,700.93 C 4903.16,686.816 4906.62,669.824 4906.62,642.754 C 4906.62,615.391 4903.16,598.398 4889.62,584.285"
             style="fill:#4f4b4c;fill-opacity:1;fill-rule:nonzero;stroke:none"
             id="path3893" /><path
             d="M 5029.59,567.578 L 5029.59,658.301 C 5029.59,678.75 5016.64,685.664 5004.83,685.664 C 4993.01,685.664 4979.78,678.75 4979.78,658.301 L 4979.78,567.578 L 4942.33,567.578 L 4942.33,717.637 L 4978.91,717.637 L 4978.91,703.809 C 4988.7,714.18 5002.53,719.355 5016.34,719.355 C 5031.32,719.355 5043.41,714.465 5051.78,706.121 C 5063.86,694.016 5067.04,679.91 5067.04,663.496 L 5067.04,567.578 L 5029.59,567.578"
             style="fill:#4f4b4c;fill-opacity:1;fill-rule:nonzero;stroke:none"
             id="path3895" /><path
             d="M 5224.55,567.578 L 5224.55,732.324 L 5182.79,696.035 L 5182.79,736.348 L 5224.55,772.637 L 5261.99,772.637 L 5261.99,567.578 L 5224.55,567.578"
             style="fill:#4f4b4c;fill-opacity:1;fill-rule:nonzero;stroke:none"
             id="path3897" /><path
             d="M 3914.79,731.387 L 3914.79,647.871 L 3914.86,647.871 C 3914.86,634.59 3904.13,623.867 3890.88,623.867 C 3877.7,623.867 3866.92,634.59 3866.92,647.871 L 3867.04,647.871 L 3867.04,724.082 L 3827.08,724.082 L 3827.08,647.871 C 3827.08,612.578 3855.67,584.043 3890.88,584.043 C 3926.16,584.043 3954.76,612.578 3954.76,647.871 L 3954.76,731.387 L 3914.79,731.387"
             style="fill:#4f4b4c;fill-opacity:1;fill-rule:nonzero;stroke:none"
             id="path3899" /><path
             d="M 4012.99,570.254 L 4012.99,681.699 L 3972.21,681.699 L 3972.21,531.816 L 4068.42,531.816 L 4068.42,570.254 L 4012.99,570.254"
             style="fill:#4f4b4c;fill-opacity:1;fill-rule:nonzero;stroke:none"
             id="path3901" /><path
             d="M 4084.24,622.949 L 4070.88,622.969 L 4070.83,643.34 L 4084.37,643.223 C 4090.52,643.164 4095.44,638.789 4095.38,632.996 C 4095.33,627.246 4090.41,622.871 4084.24,622.949 z M 4082.5,699.922 C 4088.87,699.844 4094.04,695.254 4094.04,689.199 C 4093.97,683.184 4088.75,678.66 4082.37,678.691 L 4071.18,678.73 L 4071.18,699.922 L 4082.5,699.922 z M 4121.4,665.215 C 4129.49,672.09 4134.7,682.207 4134.7,693.621 C 4134.7,714.336 4117.88,731.121 4097.13,731.121 L 4032.04,731.27 L 4032.04,588.418 L 4099.95,588.359 C 4122.87,588.359 4141.44,606.934 4141.44,629.844 C 4141.44,644.91 4133.41,657.949 4121.4,665.215"
             style="fill:#4f4b4c;fill-opacity:1;fill-rule:nonzero;stroke:none"
             id="path3903" /><path
             d="M 3984.63,702.832 C 3968.94,702.832 3956.16,715.566 3956.16,731.27 C 3956.16,747.012 3968.94,759.746 3984.63,759.746 C 3990.03,759.746 3995.07,758.125 3999.35,755.527 L 4020.84,790.957 C 4010.3,797.41 3997.94,801.191 3984.63,801.191 C 3946.03,801.191 3914.74,769.883 3914.74,731.27 C 3914.74,692.703 3946.03,661.414 3984.63,661.414 C 4023.25,661.414 4054.54,692.703 4054.54,731.27 L 4013.12,731.27 C 4013.12,715.566 4000.34,702.832 3984.63,702.832"
             style="fill:#4f4b4c;fill-opacity:1;fill-rule:nonzero;stroke:none"
             id="path3905" /></g></g></g></g></svg>